<svg width="256" height="256" viewBox="0 0 100 100" fill="none" xmlns="http://www.w3.org/2000/svg">
  <defs>
    <linearGradient id="braceGradient" x1="0%" y1="0%" x2="0%" y2="100%">
      <stop offset="0%" stop-color="#1E3A5F" />
      <stop offset="50%" stop-color="#2DE2B1" />
      <stop offset="100%" stop-color="#1E3A5F" />
    </linearGradient>
  </defs>
  
  <!-- Left curly brace { -->
  <path d="M 35 15 Q 28 15 28 22 L 28 38 Q 28 44 22 47 Q 22 48.5 22 50 Q 28 53 28 59 L 28 75 Q 28 82 35 82" stroke="url(#braceGradient)" stroke-width="8" stroke-linecap="round" stroke-linejoin="round" fill="none"/>
  
  <!-- Right curly brace } -->
  <path d="M 65 15 Q 72 15 72 22 L 72 38 Q 72 44 78 47 Q 78 48.5 78 50 Q 72 53 72 59 L 72 75 Q 72 82 65 82" stroke="url(#braceGradient)" stroke-width="8" stroke-linecap="round" stroke-linejoin="round" fill="none"/>
  
  <!-- Arrow shaft segments -->
  <rect x="46" y="60" width="8" height="12" fill="#1E3A5F" rx="1"/>
  <rect x="46" y="48" width="8" height="8" fill="#2DE2B1" rx="1"/>
  <rect x="46" y="36" width="8" height="8" fill="#1E3A5F" rx="1"/>
  
  <!-- Arrow head -->
  <path d="M 50 18 L 60 36 L 40 36 Z" fill="#1E3A5F"/>
  
  <!-- Bottom segment -->
  <rect x="46" y="76" width="8" height="8" fill="#2DE2B1" rx="1"/>
</svg>